<svg xmlns="http://www.w3.org/2000/svg" viewBox="0 0 100 100">
  <defs>
    <linearGradient id="grad" x1="0%" y1="0%" x2="100%" y2="100%">
      <stop offset="0%" style="stop-color:#3b82f6;stop-opacity:1" />
      <stop offset="100%" style="stop-color:#06b6d4;stop-opacity:1" />
    </linearGradient>
  </defs>
  <rect width="100" height="100" rx="20" fill="url(#grad)"/>
  <path d="M50 25 C35 25 25 35 25 50 C25 65 35 75 50 75 C55 75 60 73 64 70 L72 78 C73 79 75 79 76 78 L78 76 C79 75 79 73 78 72 L70 64 C73 60 75 55 75 50 C75 35 65 25 50 25 M50 35 C60 35 65 40 65 50 C65 60 60 65 50 65 C40 65 35 60 35 50 C35 40 40 35 50 35" fill="white"/>
  <circle cx="50" cy="50" r="8" fill="white"/>
</svg>

